<mxfile host="65bd71144e">
    <diagram id="MPdDlHyuftmdFjeUXL9s" name="第 1 页">
        <mxGraphModel dx="1652" dy="1039" grid="1" gridSize="10" guides="1" tooltips="1" connect="1" arrows="1" fold="1" page="1" pageScale="1" pageWidth="827" pageHeight="1169" math="0" shadow="0">
            <root>
                <mxCell id="0"/>
                <mxCell id="1" parent="0"/>
                <mxCell id="2" value="trait Try" style="swimlane;fontStyle=1;childLayout=stackLayout;horizontal=1;startSize=26;horizontalStack=0;resizeParent=1;resizeParentMax=0;resizeLast=0;collapsible=1;marginBottom=0;align=center;fontSize=14;fillColor=#dae8fc;strokeColor=#6c8ebf;" parent="1" vertex="1">
                    <mxGeometry x="314.5" y="251" width="201" height="176" as="geometry"/>
                </mxCell>
                <mxCell id="3" value="type Output" style="text;strokeColor=none;fillColor=none;spacingLeft=4;spacingRight=4;overflow=hidden;rotatable=0;points=[[0,0.5],[1,0.5]];portConstraint=eastwest;fontSize=12;" parent="2" vertex="1">
                    <mxGeometry y="26" width="201" height="30" as="geometry"/>
                </mxCell>
                <mxCell id="4" value="type Residual" style="text;strokeColor=none;fillColor=none;spacingLeft=4;spacingRight=4;overflow=hidden;rotatable=0;points=[[0,0.5],[1,0.5]];portConstraint=eastwest;fontSize=12;" parent="2" vertex="1">
                    <mxGeometry y="56" width="201" height="30" as="geometry"/>
                </mxCell>
                <mxCell id="6" value="方法" style="text;strokeColor=none;fillColor=none;spacingLeft=4;spacingRight=4;overflow=hidden;rotatable=0;points=[[0,0.5],[1,0.5]];portConstraint=eastwest;fontSize=12;" parent="2" vertex="1">
                    <mxGeometry y="86" width="201" height="30" as="geometry"/>
                </mxCell>
                <mxCell id="7" value="from_output(Output) -&gt; Self" style="text;strokeColor=#666666;fillColor=#f5f5f5;spacingLeft=4;spacingRight=4;overflow=hidden;rotatable=0;points=[[0,0.5],[1,0.5]];portConstraint=eastwest;fontSize=12;fontColor=#333333;" parent="2" vertex="1">
                    <mxGeometry y="116" width="201" height="30" as="geometry"/>
                </mxCell>
                <mxCell id="5" value="branch(Self) -&gt; ControlFlow&lt;..&gt;" style="text;strokeColor=#666666;fillColor=#f5f5f5;spacingLeft=4;spacingRight=4;overflow=hidden;rotatable=0;points=[[0,0.5],[1,0.5]];portConstraint=eastwest;fontSize=12;fontColor=#333333;" parent="2" vertex="1">
                    <mxGeometry y="146" width="201" height="30" as="geometry"/>
                </mxCell>
                <mxCell id="8" value="enum Result&lt;T,E&gt; " style="swimlane;fontStyle=1;childLayout=stackLayout;horizontal=1;startSize=26;horizontalStack=0;resizeParent=1;resizeParentMax=0;resizeLast=0;collapsible=1;marginBottom=0;align=center;fontSize=14;fillColor=#dae8fc;strokeColor=#6c8ebf;" parent="1" vertex="1">
                    <mxGeometry x="45" y="251" width="160" height="86" as="geometry"/>
                </mxCell>
                <mxCell id="9" value="Ok(T)" style="text;strokeColor=none;fillColor=none;spacingLeft=4;spacingRight=4;overflow=hidden;rotatable=0;points=[[0,0.5],[1,0.5]];portConstraint=eastwest;fontSize=12;" parent="8" vertex="1">
                    <mxGeometry y="26" width="160" height="30" as="geometry"/>
                </mxCell>
                <mxCell id="10" value="Err(E)" style="text;strokeColor=none;fillColor=none;spacingLeft=4;spacingRight=4;overflow=hidden;rotatable=0;points=[[0,0.5],[1,0.5]];portConstraint=eastwest;fontSize=12;" parent="8" vertex="1">
                    <mxGeometry y="56" width="160" height="30" as="geometry"/>
                </mxCell>
                <mxCell id="13" value="ControlFlow::Continue(t)" style="rounded=0;whiteSpace=wrap;html=1;" parent="1" vertex="1">
                    <mxGeometry x="185" y="550" width="160" height="40" as="geometry"/>
                </mxCell>
                <mxCell id="14" value="ControlFlow::Break(Err(e))" style="rounded=0;whiteSpace=wrap;html=1;" parent="1" vertex="1">
                    <mxGeometry x="185" y="737" width="160" height="40" as="geometry"/>
                </mxCell>
                <mxCell id="15" value="短路值 c" style="rounded=0;whiteSpace=wrap;html=1;fillColor=#6d8764;fontColor=#ffffff;strokeColor=#3A5431;" parent="1" vertex="1">
                    <mxGeometry x="45" y="640" width="80" height="47" as="geometry"/>
                </mxCell>
                <mxCell id="16" value="?" style="rounded=0;whiteSpace=wrap;html=1;fontStyle=1;fontSize=20;fillColor=#60a917;fontColor=#ffffff;strokeColor=#2D7600;" parent="1" vertex="1">
                    <mxGeometry x="125" y="640" width="40" height="47" as="geometry"/>
                </mxCell>
                <mxCell id="17" value="Ok(v)" style="endArrow=classic;html=1;entryX=0.5;entryY=1;entryDx=0;entryDy=0;exitX=0.5;exitY=0;exitDx=0;exitDy=0;fontColor=#4D9900;fontStyle=1;fontSize=14;" parent="1" source="50" target="13" edge="1">
                    <mxGeometry width="50" height="50" relative="1" as="geometry">
                        <mxPoint x="474" y="749" as="sourcePoint"/>
                        <mxPoint x="524" y="699" as="targetPoint"/>
                    </mxGeometry>
                </mxCell>
                <mxCell id="18" value="Err(e)" style="endArrow=classic;html=1;exitX=0.5;exitY=1;exitDx=0;exitDy=0;entryX=0.5;entryY=0;entryDx=0;entryDy=0;fontStyle=1;fontSize=14;fontColor=#FF0000;" parent="1" source="50" target="14" edge="1">
                    <mxGeometry width="50" height="50" relative="1" as="geometry">
                        <mxPoint x="474" y="749" as="sourcePoint"/>
                        <mxPoint x="524" y="699" as="targetPoint"/>
                    </mxGeometry>
                </mxCell>
                <mxCell id="19" value="流程继续" style="rounded=0;whiteSpace=wrap;html=1;fillColor=#008a00;fontColor=#ffffff;strokeColor=#005700;" parent="1" vertex="1">
                    <mxGeometry x="467" y="550" width="80" height="40" as="geometry"/>
                </mxCell>
                <mxCell id="20" value="中断执行" style="rounded=0;whiteSpace=wrap;html=1;fillColor=#d80073;fontColor=#ffffff;strokeColor=#A50040;" parent="1" vertex="1">
                    <mxGeometry x="467" y="737" width="80" height="40" as="geometry"/>
                </mxCell>
                <mxCell id="21" value="" style="endArrow=classic;html=1;exitX=1;exitY=0.5;exitDx=0;exitDy=0;" parent="1" source="13" target="23" edge="1">
                    <mxGeometry width="50" height="50" relative="1" as="geometry">
                        <mxPoint x="286" y="686.5" as="sourcePoint"/>
                        <mxPoint x="336" y="636.5" as="targetPoint"/>
                    </mxGeometry>
                </mxCell>
                <mxCell id="22" value="" style="endArrow=classic;html=1;exitX=1;exitY=0.5;exitDx=0;exitDy=0;entryX=0;entryY=0.5;entryDx=0;entryDy=0;" parent="1" source="14" target="24" edge="1">
                    <mxGeometry width="50" height="50" relative="1" as="geometry">
                        <mxPoint x="286" y="813.5" as="sourcePoint"/>
                        <mxPoint x="336" y="763.5" as="targetPoint"/>
                    </mxGeometry>
                </mxCell>
                <mxCell id="23" value="取t值" style="rounded=0;whiteSpace=wrap;html=1;" parent="1" vertex="1">
                    <mxGeometry x="373" y="550" width="71" height="40" as="geometry"/>
                </mxCell>
                <mxCell id="24" value="取Err(e)值" style="rounded=0;whiteSpace=wrap;html=1;" parent="1" vertex="1">
                    <mxGeometry x="373" y="737" width="71" height="40" as="geometry"/>
                </mxCell>
                <mxCell id="25" value="" style="endArrow=classic;html=1;exitX=1;exitY=0.5;exitDx=0;exitDy=0;entryX=0;entryY=0.5;entryDx=0;entryDy=0;" parent="1" source="23" target="19" edge="1">
                    <mxGeometry width="50" height="50" relative="1" as="geometry">
                        <mxPoint x="283" y="686.5" as="sourcePoint"/>
                        <mxPoint x="333" y="636.5" as="targetPoint"/>
                    </mxGeometry>
                </mxCell>
                <mxCell id="29" value="" style="endArrow=classic;html=1;exitX=1;exitY=0.5;exitDx=0;exitDy=0;entryX=0;entryY=0.5;entryDx=0;entryDy=0;" parent="1" source="24" target="20" edge="1">
                    <mxGeometry width="50" height="50" relative="1" as="geometry">
                        <mxPoint x="343" y="813.5" as="sourcePoint"/>
                        <mxPoint x="393" y="763.5" as="targetPoint"/>
                    </mxGeometry>
                </mxCell>
                <mxCell id="30" value="返回 &lt;b&gt;&lt;font style=&quot;font-size: 15px;&quot; color=&quot;#0066cc&quot;&gt;R&lt;/font&gt;&lt;/b&gt;::from_residual(Err(e))&amp;nbsp;" style="rounded=0;whiteSpace=wrap;html=1;" parent="1" vertex="1">
                    <mxGeometry x="572" y="737" width="150" height="40" as="geometry"/>
                </mxCell>
                <mxCell id="31" value="" style="endArrow=classic;html=1;exitX=1;exitY=0.5;exitDx=0;exitDy=0;entryX=0;entryY=0.5;entryDx=0;entryDy=0;" parent="1" source="20" target="30" edge="1">
                    <mxGeometry width="50" height="50" relative="1" as="geometry">
                        <mxPoint x="453" y="677" as="sourcePoint"/>
                        <mxPoint x="503" y="617" as="targetPoint"/>
                    </mxGeometry>
                </mxCell>
                <mxCell id="34" value="业务使用v值" style="rounded=0;whiteSpace=wrap;html=1;fillColor=#008a00;fontColor=#ffffff;strokeColor=#005700;" parent="1" vertex="1">
                    <mxGeometry x="572" y="550" width="150" height="40" as="geometry"/>
                </mxCell>
                <mxCell id="35" value="返回 &lt;b&gt;&lt;font style=&quot;font-size: 15px;&quot; color=&quot;#0066cc&quot;&gt;R&lt;/font&gt;&lt;/b&gt;::from_output(Other)" style="rounded=0;whiteSpace=wrap;html=1;" parent="1" vertex="1">
                    <mxGeometry x="572" y="619" width="150" height="40" as="geometry"/>
                </mxCell>
                <mxCell id="36" value="" style="endArrow=classic;html=1;entryX=0;entryY=0.5;entryDx=0;entryDy=0;" parent="1" source="19" target="34" edge="1">
                    <mxGeometry width="50" height="50" relative="1" as="geometry">
                        <mxPoint x="453" y="689" as="sourcePoint"/>
                        <mxPoint x="503" y="639" as="targetPoint"/>
                    </mxGeometry>
                </mxCell>
                <mxCell id="37" value="" style="endArrow=classic;html=1;exitX=0.5;exitY=1;exitDx=0;exitDy=0;" parent="1" source="34" target="35" edge="1">
                    <mxGeometry width="50" height="50" relative="1" as="geometry">
                        <mxPoint x="453" y="774" as="sourcePoint"/>
                        <mxPoint x="503" y="724" as="targetPoint"/>
                    </mxGeometry>
                </mxCell>
                <mxCell id="38" value="trait FromResidual" style="swimlane;fontStyle=1;childLayout=stackLayout;horizontal=1;startSize=26;horizontalStack=0;resizeParent=1;resizeParentMax=0;resizeLast=0;collapsible=1;marginBottom=0;align=center;fontSize=14;fillColor=#dae8fc;strokeColor=#6c8ebf;" parent="1" vertex="1">
                    <mxGeometry x="586" y="251" width="191" height="86" as="geometry"/>
                </mxCell>
                <mxCell id="41" value="方法" style="text;strokeColor=none;fillColor=none;spacingLeft=4;spacingRight=4;overflow=hidden;rotatable=0;points=[[0,0.5],[1,0.5]];portConstraint=eastwest;fontSize=12;" parent="38" vertex="1">
                    <mxGeometry y="26" width="191" height="30" as="geometry"/>
                </mxCell>
                <mxCell id="42" value="from_residual(Output) -&gt; Self" style="text;strokeColor=#666666;fillColor=#f5f5f5;spacingLeft=4;spacingRight=4;overflow=hidden;rotatable=0;points=[[0,0.5],[1,0.5]];portConstraint=eastwest;fontSize=12;fontColor=#333333;" parent="38" vertex="1">
                    <mxGeometry y="56" width="191" height="30" as="geometry"/>
                </mxCell>
                <mxCell id="50" value="c.branch()" style="rounded=0;whiteSpace=wrap;html=1;" parent="1" vertex="1">
                    <mxGeometry x="209.5" y="639" width="111" height="47" as="geometry"/>
                </mxCell>
                <mxCell id="57" value="展开" style="endArrow=classic;html=1;exitX=1;exitY=0.5;exitDx=0;exitDy=0;entryX=0;entryY=0.5;entryDx=0;entryDy=0;" parent="1" source="16" target="50" edge="1">
                    <mxGeometry width="50" height="50" relative="1" as="geometry">
                        <mxPoint x="195" y="662.5" as="sourcePoint"/>
                        <mxPoint x="497" y="505" as="targetPoint"/>
                    </mxGeometry>
                </mxCell>
                <mxCell id="58" value="&lt;b style=&quot;border-color: var(--border-color); font-size: 15px;&quot;&gt;短路域&lt;br style=&quot;border-color: var(--border-color);&quot;&gt;&lt;/b&gt;fn some_function() -&amp;gt;&amp;nbsp;&lt;b style=&quot;border-color: var(--border-color); font-size: 15px;&quot;&gt;&lt;font style=&quot;border-color: var(--border-color);&quot; color=&quot;#0066cc&quot;&gt;&lt;font style=&quot;border-color: var(--border-color);&quot;&gt;R&lt;/font&gt;&amp;nbsp;&lt;/font&gt;&lt;/b&gt;{ ... }&amp;nbsp; 或 let r: &lt;b&gt;&lt;font style=&quot;font-size: 15px;&quot; color=&quot;#0066cc&quot;&gt;R&lt;/font&gt;&lt;/b&gt; = &lt;b&gt;try&lt;/b&gt;&lt;font style=&quot;border-color: var(--border-color); font-size: 15px;&quot; color=&quot;#0066cc&quot;&gt;&amp;nbsp;&lt;/font&gt;{ ... }" style="rounded=0;whiteSpace=wrap;html=1;fillColor=#f9f7ed;strokeColor=#36393d;" parent="1" vertex="1">
                    <mxGeometry x="45" y="450" width="740" height="60" as="geometry"/>
                </mxCell>
                <mxCell id="63" value="Err(v)" style="endArrow=classic;html=1;exitX=1;exitY=0.5;exitDx=0;exitDy=0;fontStyle=1;fontSize=14;fontColor=#FF0000;entryX=0.978;entryY=1.049;entryDx=0;entryDy=0;entryPerimeter=0;" parent="1" source="30" edge="1" target="58">
                    <mxGeometry x="-0.4064" y="10" width="50" height="50" relative="1" as="geometry">
                        <mxPoint x="417" y="736" as="sourcePoint"/>
                        <mxPoint x="770" y="500" as="targetPoint"/>
                        <Array as="points">
                            <mxPoint x="769" y="757"/>
                        </Array>
                        <mxPoint as="offset"/>
                    </mxGeometry>
                </mxCell>
                <mxCell id="64" value="Ok(...)" style="endArrow=classic;html=1;exitX=1;exitY=1;exitDx=0;exitDy=0;entryX=0.94;entryY=1.064;entryDx=0;entryDy=0;fontColor=#4D9900;fontSize=14;fontStyle=1;entryPerimeter=0;" parent="1" source="35" target="58" edge="1">
                    <mxGeometry x="-0.1609" y="11" width="50" height="50" relative="1" as="geometry">
                        <mxPoint x="417" y="736" as="sourcePoint"/>
                        <mxPoint x="697" y="886" as="targetPoint"/>
                        <Array as="points">
                            <mxPoint x="741" y="660"/>
                        </Array>
                        <mxPoint as="offset"/>
                    </mxGeometry>
                </mxCell>
                <mxCell id="65" value="★ Start" style="endArrow=classic;html=1;fontSize=14;fontColor=#006666;fontStyle=1" parent="1" edge="1">
                    <mxGeometry width="50" height="50" relative="1" as="geometry">
                        <mxPoint x="85" y="510" as="sourcePoint"/>
                        <mxPoint x="85" y="640" as="targetPoint"/>
                    </mxGeometry>
                </mxCell>
                <mxCell id="68" value="实现" style="endArrow=classic;html=1;strokeColor=#666666;fontSize=14;fontColor=#006666;exitX=0;exitY=0;exitDx=0;exitDy=0;entryX=1;entryY=0;entryDx=0;entryDy=0;" parent="1" source="2" target="8" edge="1">
                    <mxGeometry x="-0.0959" y="10" width="50" height="50" relative="1" as="geometry">
                        <mxPoint x="415" y="751" as="sourcePoint"/>
                        <mxPoint x="465" y="701" as="targetPoint"/>
                        <mxPoint as="offset"/>
                    </mxGeometry>
                </mxCell>
                <mxCell id="69" value="约束" style="endArrow=classic;html=1;strokeColor=#666666;fontSize=14;fontColor=#006666;exitX=0;exitY=0;exitDx=0;exitDy=0;entryX=1;entryY=0;entryDx=0;entryDy=0;" parent="1" source="38" target="2" edge="1">
                    <mxGeometry x="-0.1206" y="10" width="50" height="50" relative="1" as="geometry">
                        <mxPoint x="415" y="751" as="sourcePoint"/>
                        <mxPoint x="465" y="701" as="targetPoint"/>
                        <mxPoint as="offset"/>
                    </mxGeometry>
                </mxCell>
                <mxCell id="70" value="短路操作逻辑草图--Result" style="text;html=1;align=center;verticalAlign=middle;resizable=0;points=[];autosize=1;strokeColor=none;fillColor=none;fontSize=15;fontColor=#000000;fontStyle=1" parent="1" vertex="1">
                    <mxGeometry x="309.5" y="211" width="200" height="30" as="geometry"/>
                </mxCell>
                <mxCell id="72" value="说明:&lt;br&gt;短路符&lt;b&gt;?&lt;/b&gt; 等价于&lt;b&gt; try!{}&lt;/b&gt;,后者已过时" style="text;html=1;align=left;verticalAlign=middle;resizable=0;points=[];autosize=1;strokeColor=none;fillColor=none;fontSize=11;fontColor=#666666;" parent="1" vertex="1">
                    <mxGeometry x="50" y="686" width="190" height="40" as="geometry"/>
                </mxCell>
                <mxCell id="75" value="或 Ok(Other)" style="rounded=0;whiteSpace=wrap;html=1;" parent="1" vertex="1">
                    <mxGeometry x="572" y="659" width="150" height="40" as="geometry"/>
                </mxCell>
                <mxCell id="78" value="" style="endArrow=classic;html=1;strokeColor=#666666;fontSize=11;fontColor=#FF0000;" parent="1" edge="1">
                    <mxGeometry width="50" height="50" relative="1" as="geometry">
                        <mxPoint x="771.5" y="20" as="sourcePoint"/>
                        <mxPoint x="771.5" y="170" as="targetPoint"/>
                    </mxGeometry>
                </mxCell>
                <mxCell id="79" value="" style="endArrow=none;html=1;strokeColor=#666666;fontSize=11;fontColor=#FF0000;" parent="1" edge="1">
                    <mxGeometry width="50" height="50" relative="1" as="geometry">
                        <mxPoint x="253.5" y="80" as="sourcePoint"/>
                        <mxPoint x="253.5" y="20" as="targetPoint"/>
                    </mxGeometry>
                </mxCell>
                <mxCell id="80" value="" style="endArrow=none;html=1;strokeColor=#666666;fontSize=11;fontColor=#FF0000;" parent="1" edge="1">
                    <mxGeometry width="50" height="50" relative="1" as="geometry">
                        <mxPoint x="253.5" y="120" as="sourcePoint"/>
                        <mxPoint x="253.5" y="170" as="targetPoint"/>
                    </mxGeometry>
                </mxCell>
                <mxCell id="81" value="" style="endArrow=none;html=1;strokeColor=#666666;fontSize=11;fontColor=#FF0000;" parent="1" edge="1">
                    <mxGeometry width="50" height="50" relative="1" as="geometry">
                        <mxPoint x="223.5" y="110" as="sourcePoint"/>
                        <mxPoint x="253.5" y="80" as="targetPoint"/>
                    </mxGeometry>
                </mxCell>
                <mxCell id="82" value="" style="endArrow=classic;html=1;strokeColor=#666666;fontSize=11;fontColor=#FF0000;" parent="1" edge="1">
                    <mxGeometry width="50" height="50" relative="1" as="geometry">
                        <mxPoint x="232.5" y="110" as="sourcePoint"/>
                        <mxPoint x="242.5" y="120" as="targetPoint"/>
                    </mxGeometry>
                </mxCell>
                <mxCell id="83" value="+" style="text;html=1;align=center;verticalAlign=middle;resizable=0;points=[];autosize=1;strokeColor=none;fillColor=none;fontSize=15;fontColor=#FF0000;fontStyle=1" parent="1" vertex="1">
                    <mxGeometry x="42.5" y="20" width="30" height="30" as="geometry"/>
                </mxCell>
                <mxCell id="84" value="-" style="text;html=1;align=center;verticalAlign=middle;resizable=0;points=[];autosize=1;strokeColor=none;fillColor=none;fontSize=15;fontColor=#FF0000;fontStyle=1" parent="1" vertex="1">
                    <mxGeometry x="42.5" y="140" width="30" height="30" as="geometry"/>
                </mxCell>
                <mxCell id="146" value="&lt;b&gt;R&lt;/b&gt;" style="endArrow=none;dashed=1;html=1;fontSize=15;fontColor=#0066CC;entryX=1;entryY=0.25;entryDx=0;entryDy=0;exitX=0.324;exitY=-0.061;exitDx=0;exitDy=0;exitPerimeter=0;" edge="1" parent="1" source="58" target="149">
                    <mxGeometry x="-0.0028" width="50" height="50" relative="1" as="geometry">
                        <mxPoint x="390" y="650" as="sourcePoint"/>
                        <mxPoint x="440" y="600" as="targetPoint"/>
                        <Array as="points">
                            <mxPoint x="285" y="372"/>
                        </Array>
                        <mxPoint as="offset"/>
                    </mxGeometry>
                </mxCell>
                <mxCell id="147" value="" style="endArrow=none;dashed=1;html=1;fontSize=12;fontColor=#000000;exitX=0.25;exitY=0;exitDx=0;exitDy=0;entryX=0.124;entryY=1.025;entryDx=0;entryDy=0;entryPerimeter=0;" edge="1" parent="1" source="15" target="10">
                    <mxGeometry x="0.4554" y="-15" width="50" height="50" relative="1" as="geometry">
                        <mxPoint x="390" y="650" as="sourcePoint"/>
                        <mxPoint x="70" y="300" as="targetPoint"/>
                        <mxPoint as="offset"/>
                    </mxGeometry>
                </mxCell>
                <mxCell id="152" value="&lt;font color=&quot;#000000&quot;&gt;实例&lt;/font&gt;" style="edgeLabel;html=1;align=center;verticalAlign=middle;resizable=0;points=[];fontSize=12;fontColor=#FF6666;" vertex="1" connectable="0" parent="147">
                    <mxGeometry x="0.6658" y="2" relative="1" as="geometry">
                        <mxPoint as="offset"/>
                    </mxGeometry>
                </mxCell>
                <mxCell id="148" value="&lt;font style=&quot;font-size: 13px;&quot;&gt;&lt;b style=&quot;font-size: 13px;&quot;&gt;短路操作说明:&lt;br style=&quot;font-size: 13px;&quot;&gt;&lt;/b&gt;1.短路类型&lt;br style=&quot;font-size: 13px;&quot;&gt;- 必须实现Try&lt;br style=&quot;font-size: 13px;&quot;&gt;- 由branch方法返回&lt;span style=&quot;text-align: center; font-size: 13px;&quot;&gt;&lt;font color=&quot;#ff6666&quot; style=&quot;font-size: 13px;&quot;&gt;&lt;b style=&quot;font-size: 13px;&quot;&gt;ControlFlow::Break(e)&lt;/b&gt;&lt;/font&gt;来标明短路&lt;/span&gt;&lt;br style=&quot;font-size: 13px;&quot;&gt;2.短路域返回值&lt;br style=&quot;font-size: 13px;&quot;&gt;- 必须实现Try&lt;br style=&quot;font-size: 13px;&quot;&gt;- 最简单的场景: 短路值与短路返回值类型完全相同&lt;br style=&quot;font-size: 13px;&quot;&gt;&lt;/font&gt;" style="text;html=1;align=left;verticalAlign=middle;resizable=0;points=[];autosize=1;strokeColor=none;fillColor=none;fontSize=13;fontColor=#000000;" vertex="1" parent="1">
                    <mxGeometry x="42.5" y="777" width="340" height="120" as="geometry"/>
                </mxCell>
                <mxCell id="149" value="enum Result&lt;U,V&gt; " style="swimlane;fontStyle=0;childLayout=stackLayout;horizontal=1;startSize=26;horizontalStack=0;resizeParent=1;resizeParentMax=0;resizeLast=0;collapsible=1;marginBottom=0;align=center;fontSize=14;" vertex="1" parent="1">
                    <mxGeometry x="100" y="350" width="160" height="86" as="geometry"/>
                </mxCell>
                <mxCell id="150" value="Ok(U)" style="text;strokeColor=none;fillColor=none;spacingLeft=4;spacingRight=4;overflow=hidden;rotatable=0;points=[[0,0.5],[1,0.5]];portConstraint=eastwest;fontSize=12;" vertex="1" parent="149">
                    <mxGeometry y="26" width="160" height="30" as="geometry"/>
                </mxCell>
                <mxCell id="151" value="Err(V)" style="text;strokeColor=none;fillColor=none;spacingLeft=4;spacingRight=4;overflow=hidden;rotatable=0;points=[[0,0.5],[1,0.5]];portConstraint=eastwest;fontSize=12;" vertex="1" parent="149">
                    <mxGeometry y="56" width="160" height="30" as="geometry"/>
                </mxCell>
                <mxCell id="153" value="实现" style="endArrow=classic;html=1;fontSize=12;fontColor=#000000;exitX=0;exitY=0;exitDx=0;exitDy=0;entryX=1;entryY=0;entryDx=0;entryDy=0;" edge="1" parent="1" source="2" target="149">
                    <mxGeometry width="50" height="50" relative="1" as="geometry">
                        <mxPoint x="380" y="700" as="sourcePoint"/>
                        <mxPoint x="430" y="650" as="targetPoint"/>
                    </mxGeometry>
                </mxCell>
                <mxCell id="154" value="impl Try for Result&amp;lt;...&amp;gt; {&lt;br&gt;&amp;nbsp; type Output = T;&lt;br style=&quot;font-size: 12px;&quot;&gt;&amp;nbsp; type Residual = &lt;font color=&quot;#ff6666&quot;&gt;&lt;b&gt;Result&amp;lt;_,E&amp;gt;&lt;/b&gt;;&lt;/font&gt;&lt;br&gt;&amp;nbsp; ...&lt;br&gt;}&amp;nbsp;" style="text;html=1;align=left;verticalAlign=middle;resizable=0;points=[];autosize=1;strokeColor=none;fillColor=none;fontSize=12;fontColor=#000000;" vertex="1" parent="1">
                    <mxGeometry x="335.5" y="618.5" width="190" height="90" as="geometry"/>
                </mxCell>
                <mxCell id="156" value="短路开关" style="text;html=1;align=center;verticalAlign=middle;resizable=0;points=[];autosize=1;strokeColor=none;fillColor=none;fontSize=12;fontColor=#000000;" vertex="1" parent="1">
                    <mxGeometry x="240" y="90" width="70" height="30" as="geometry"/>
                </mxCell>
                <mxCell id="157" value="" style="endArrow=classic;html=1;fontSize=12;fontColor=#000000;entryX=0.169;entryY=1.053;entryDx=0;entryDy=0;entryPerimeter=0;" edge="1" parent="1">
                    <mxGeometry width="50" height="50" relative="1" as="geometry">
                        <mxPoint x="772" y="170" as="sourcePoint"/>
                        <mxPoint x="49.569999999999936" y="171.58999999999992" as="targetPoint"/>
                    </mxGeometry>
                </mxCell>
                <mxCell id="158" value="" style="endArrow=classic;html=1;fontSize=12;fontColor=#000000;exitX=0.26;exitY=-0.028;exitDx=0;exitDy=0;exitPerimeter=0;" edge="1" parent="1">
                    <mxGeometry width="50" height="50" relative="1" as="geometry">
                        <mxPoint x="52.299999999999955" y="19.160000000000082" as="sourcePoint"/>
                        <mxPoint x="772" y="20" as="targetPoint"/>
                    </mxGeometry>
                </mxCell>
                <mxCell id="159" value="&lt;b style=&quot;font-size: 13px;&quot;&gt;try blocks说明:&lt;br style=&quot;font-size: 13px;&quot;&gt;&lt;/b&gt;1.成功返回值&lt;br style=&quot;font-size: 13px;&quot;&gt;块内返回值会通过&lt;font color=&quot;#ff6666&quot;&gt;&lt;b&gt;R::from_output(v)&lt;/b&gt;&lt;/font&gt;后作为try表达式的成功返回值&lt;br style=&quot;font-size: 13px;&quot;&gt;2.短路返回值&lt;br style=&quot;font-size: 13px;&quot;&gt;try块会捕获块内的短路返回值,使短路操作不继续向上返回" style="text;html=1;align=left;verticalAlign=middle;resizable=0;points=[];autosize=1;strokeColor=none;fillColor=none;fontSize=13;fontColor=#000000;" vertex="1" parent="1">
                    <mxGeometry x="415" y="780" width="410" height="90" as="geometry"/>
                </mxCell>
            </root>
        </mxGraphModel>
    </diagram>
</mxfile>